{"title":"The Beast Within (1982) BDRip-AVC MediaClub","uid":10934100,"size":1657657407,"categoryP":"video","categoryS":"hd___movies","magnet":"?xt=urn:btih:55d665640a0d0cc259aefb27edaea278ab46b204&amp;dn=The+Beast+Within+%281982%29+BDRip-AVC+MediaClub&amp;tr=udp%3A%2F%2Ftracker.openbittorrent.com%3A80&amp;tr=udp%3A%2F%2Fopen.demonii.com%3A1337&amp;tr=udp%3A%2F%2Ftracker.coppersurfer.tk%3A6969&amp;tr=udp%3A%2F%2Fexodus.desync.com%3A6969","seeders":0,"leechers":1,"uploader":"neni69","files":1,"time":1409421629,"description":" &lt;a href=&quot; http://mediaclub.tv/&quot; rel=&quot;nofollow&quot; target=&quot;_NEW&quot;&gt; http://mediaclub.tv/&lt;/a&gt;   Welcome to MediaClub\n\n===================================================================\n                               (RUS, ENG)\n\n\nUnique ID                      : 192563589936189716385969021043691221083 (0x90DE65FDEA2B71E89B73822E12FBF05B)\nComplete name                  : E:MCZwer.wnutri.1982.x264.BDRip(AVC)-MediaClubZwer.wnutri.1982.x264.BDRip(AVC)-MediaClub.mkv\nFormat                         : Matroska\nFormat version                 : Version 4 / Version 2\nFile size                      : 1.54 GiB\nDuration                       : 1h 38mn\nOverall bit rate               : 2 246 Kbps\nMovie name                     : -= Release MediaClub =-\nEncoded date                   : UTC 2014-08-29 19:20:01\nWriting application            : mkvmerge v6.4.1 ('Omega Point') built on Sep 16 2013 22:05:10\nWriting library                : libebml v1.3.0 + libmatroska v1.4.1\n\nVideo\nID                             : 1\nFormat                         : AVC\nFormat/Info                    : Advanced Video Codec\nFormat profile                 : &lt;a class=&quot;__cf_email__&quot; href=&quot;/cdn-cgi/l/email-protection&quot; data-cfemail=&quot;bcf4d5dbd4fcf088928d&quot;&gt;[email&amp;#160;protected]&lt;/a&gt;&lt;script cf-hash='f9e31' type=&quot;text/javascript&quot;&gt;\n/* &lt;![CDATA[ */!function(){try{var t=&quot;currentScript&quot;in document?document.currentScript:function(){for(var t=document.getElementsByTagName(&quot;script&quot;),e=t.length;e--;)if(t[e].getAttribute(&quot;cf-hash&quot;))return t[e]}();if(t&amp;&amp;t.previousSibling){var e,r,n,i,c=t.previousSibling,a=c.getAttribute(&quot;data-cfemail&quot;);if(a){for(e=&quot;&quot;,r=parseInt(a.substr(0,2),16),n=2;a.length-n;n+=2)i=parseInt(a.substr(n,2),16)^r,e+=String.fromCharCode(i);e=document.createTextNode(e),c.parentNode.replaceChild(e,c)}}}catch(u){}}();/* ]]&gt; */&lt;/script&gt;\nFormat settings, CABAC         : Yes\nFormat settings, ReFrames      : 10 frames\nCodec ID                       : V_MPEG4/ISO/AVC\nDuration                       : 1h 38mn\nBit rate                       : 1 860 Kbps\nWidth                          : 1 024 pixels\nHeight                         : 436 pixels\nDisplay aspect ratio           : 2.35:1\nFrame rate                     : 23.976 fps\nColor space                    : YUV\nChroma subsampling             : 4:2:0\nBit depth                      : 8 bits\nScan type                      : Progressive\nBits/(Pixel*Frame)             : 0.174\nStream size                    : 1.25 GiB (81%)\nTitle                          : Zwer.wnutri.1982.x264.BDRip(AVC)-neni\nWriting library                : x264 core 142 r2409+42 04be48a tMod [8-bit@4:2:0 X86_64]\nEncoding settings              : cabac=1 / ref=10 / deblock=1:-3:-3 / analyse=0x3:0x133 / me=umh / subme=11 / psy=1 / fade_compensate=0.00 / psy_rd=1.00:0.30 / mixed_ref=1 / me_range=48 / chroma_me=1 / trellis=2 / 8x8dct=1 / cqm=0 / deadzone=21,11 / fast_pskip=0 / chroma_qp_offset=-4 / threads=9 / lookahead_threads=2 / sliced_threads=0 / nr=0 / decimate=0 / interlaced=0 / bluray_compat=0 / constrained_intra=0 / fgo=0 / bframes=10 / b_pyramid=2 / b_adapt=2 / b_bias=0 / direct=3 / weightb=1 / open_gop=0 / weightp=2 / keyint=250 / keyint_min=23 / scenecut=40 / intra_refresh=0 / rc=2pass / mbtree=0 / bitrate=1860 / ratetol=1.0 / qcomp=0.60 / qpmin=0:0:0 / qpmax=69:69:69 / qpstep=4 / cplxblur=20.0 / qblur=0.5 / ip_ratio=1.40 / pb_ratio=1.30 / aq=2:1.00 / aq-sensitivity=10.00 / aq-factor=1.00:1.00:1.00 / aq2=0 / aq3=0\nLanguage                       : English\nDefault                        : Yes\nForced                         : No\n\nAudio #1\nID                             : 2\nFormat                         : AC-3\nFormat/Info                    : Audio Coding 3\nMode extension                 : CM (complete main)\nFormat settings, Endianness    : Big\nCodec ID                       : A_AC3\nDuration                       : 1h 38mn\nBit rate mode                  : Constant\nBit rate                       : 192 Kbps\nChannel(s)                     : 2 channels\nChannel positions              : Front: L R\nSampling rate                  : 48.0 KHz\nBit depth                      : 16 bits\nCompression mode               : Lossy\nStream size                    : 135 MiB (9%)\nTitle                          : A (Maksim Loginoff)\nLanguage                       : Russian\nDefault                        : Yes\nForced                         : No\n\nAudio #2\nID                             : 3\nFormat                         : AC-3\nFormat/Info                    : Audio Coding 3\nMode extension                 : CM (complete main)\nFormat settings, Endianness    : Big\nCodec ID                       : A_AC3\nDuration                       : 1h 38mn\nBit rate mode                  : Constant\nBit rate                       : 192 Kbps\nChannel(s)                     : 2 channels\nChannel positions              : Front: L R\nSampling rate                  : 48.0 KHz\nBit depth                      : 16 bits\nCompression mode               : Lossy\nStream size                    : 135 MiB (9%)\nTitle                          : Original\nLanguage                       : English\nDefault                        : No\nForced                         : No\n\nText\nID                             : 4\nFormat                         : UTF-8\nCodec ID                       : S_TEXT/UTF8\nCodec ID/Info                  : UTF-8 Plain Text\nLanguage                       : English\nDefault                        : No\nForced                         : No\n\nMenu\n00:00:00.000                   : en:00:00:00.000\n00:09:24.355                   : en:00:09:24.355\n00:15:46.529                   : en:00:15:46.529\n00:25:39.329                   : en:00:25:39.329\n00:34:03.625                   : en:00:34:03.625\n00:41:03.461                   : en:00:41:03.461\n00:48:38.666                   : en:00:48:38.666\n00:57:06.214                   : en:00:57:06.214\n01:06:30.278                   : en:01:06:30.278\n01:14:53.155                   : en:01:14:53.155\n01:22:16.723                   : en:01:22:16.723\n01:31:43.707                   : en:01:31:43.707","torrent":{"xt":"urn:btih:55d665640a0d0cc259aefb27edaea278ab46b204","amp;dn":"The+Beast+Within+%281982%29+BDRip-AVC+MediaClub","amp;tr":["udp%3A%2F%2Ftracker.openbittorrent.com%3A80","udp%3A%2F%2Fopen.demonii.com%3A1337","udp%3A%2F%2Ftracker.coppersurfer.tk%3A6969","udp%3A%2F%2Fexodus.desync.com%3A6969"],"infoHash":"55d665640a0d0cc259aefb27edaea278ab46b204","infoHashBuffer":{"type":"Buffer","data":[85,214,101,100,10,13,12,194,89,174,251,39,237,174,162,120,171,70,178,4]},"announce":[],"urlList":[]}}